<svg xmlns="http://www.w3.org/2000/svg" xmlns:svg="http://www.w3.org/2000/svg" xmlns:xlink="http://www.w3.org/1999/xlink" id="svg2" width="21.333" height="21.333" preserveAspectRatio="xMidYMid meet" version="1.0" viewBox="0 0 16 16"><defs id="defs2"><linearGradient id="Main"><stop style="stop-color:#000;stop-opacity:1" id="stop2082" offset="0"/></linearGradient><linearGradient id="Main-1"><stop style="stop-color:#4d4d4d;stop-opacity:1" id="stop2082-1" offset="0"/></linearGradient><linearGradient id="Red"><stop style="stop-color:#ff664d;stop-opacity:1" id="stop2533" offset="0"/></linearGradient><linearGradient id="linearGradient2258" x1="55.033" x2="59.267" y1="41.275" y2="41.275" gradientUnits="userSpaceOnUse" xlink:href="#Main-1"/><linearGradient id="linearGradient2260" x1="56.356" x2="57.944" y1="41.275" y2="41.275" gradientUnits="userSpaceOnUse" xlink:href="#Main-1"/></defs><g id="faction" transform="matrix(3.7795264,0,0,3.7795278,-207.99992,-148.00001)" style="display:inline"><rect style="opacity:0;fill:#a51d2d;stroke-width:.264583px;paint-order:fill markers stroke;stop-color:#000" id="rect1441" width="4.233" height="4.233" x="55.033" y="39.158" rx="0"/><path id="rect1588" style="font-variation-settings:normal;opacity:1;vector-effect:none;fill:url(#linearGradient2258);fill-opacity:1;stroke:none;stroke-width:.264583px;stroke-linecap:butt;stroke-linejoin:miter;stroke-miterlimit:4;stroke-dasharray:none;stroke-dashoffset:0;stroke-opacity:1;marker:none;paint-order:fill markers stroke;stop-color:#000;stop-opacity:1" d="m 55.033331,39.158335 v 0.264584 h 0.79375 v 0.264583 h -0.529167 v 0.264583 h 0.264583 v 3.439584 h 0.264584 l 1.322916,-0.529167 1.322917,0.529167 h 0.264583 v -3.439584 h 0.264583 v -0.264583 h -0.529166 v -0.264583 h 0.79375 v -0.264584 z m 1.058333,0.264584 h 0.529167 v 0.264583 h -0.529167 z m 0.79375,0 h 0.529167 v 0.264583 h -0.529167 z m 0.79375,0 h 0.529166 v 0.264583 h -0.529166 z m -1.852083,0.529166 h 2.645833 v 3.175 l -1.322917,-0.529166 -1.322916,0.529166 z"/><path id="path1615" style="font-variation-settings:normal;opacity:1;vector-effect:none;fill:url(#linearGradient2260);fill-opacity:1;stroke:none;stroke-width:.264583px;stroke-linecap:butt;stroke-linejoin:miter;stroke-miterlimit:4;stroke-dasharray:none;stroke-dashoffset:0;stroke-opacity:1;marker:none;paint-order:fill markers stroke;stop-color:#000;stop-opacity:1" d="m 57.136562,40.481252 a 0.79374999,0.79374999 0 0 0 -0.780315,0.79375 0.79374999,0.79374999 0 0 0 0.79375,0.79375 0.79374999,0.79374999 0 0 0 0.79375,-0.79375 0.79374999,0.79374999 0 0 0 -0.79375,-0.79375 0.79374999,0.79374999 0 0 0 -0.01344,0 z m 5.29e-4,0.264583 a 0.5291661,0.52916788 0 0 1 0.01291,0 0.5291661,0.52916788 0 0 1 0.529167,0.529167 0.5291661,0.52916788 0 0 1 -0.529167,0.529167 0.5291661,0.52916788 0 0 1 -0.529166,-0.529167 0.5291661,0.52916788 0 0 1 0.516247,-0.529167 z"/></g></svg>