<svg xmlns="http://www.w3.org/2000/svg" xmlns:svg="http://www.w3.org/2000/svg" xmlns:xlink="http://www.w3.org/1999/xlink" id="svg2" width="21.333" height="21.333" preserveAspectRatio="xMidYMid meet" version="1.0" viewBox="0 0 16 16"><defs id="defs2"><linearGradient id="Main"><stop style="stop-color:#000;stop-opacity:1" id="stop2082" offset="0"/></linearGradient><linearGradient id="Red"><stop style="stop-color:#ff664d;stop-opacity:1" id="stop2533" offset="0"/></linearGradient><mask id="mask-powermask-path-effect3119" maskUnits="userSpaceOnUse"><path id="path3117" style="opacity:1;fill:#000;stroke:none;stroke-width:.264583px;stroke-linecap:butt;stroke-linejoin:miter;stroke-opacity:1" d="m 10.250537,66.995394 -0.0047,0.0047 c -0.02767,-0.0066 -0.211799,-0.04039 -0.4563028,0.204116 C 9.6572915,67.468749 9.6572915,67.468749 9.5249999,67.49562 9.3927082,67.468749 9.3927082,67.468749 9.2604165,67.204166 9.061979,67.005731 8.8982935,66.990872 8.8289184,66.99591 c -0.023124,0.0016 -0.035657,0.0057 -0.035657,0.0057 0,0 -0.062009,0.20257 0.2025716,0.467154 0.2645833,0.132291 0.2645841,0.132291 0.291455,0.264583 -0.026871,0.132292 -0.026872,0.132292 -0.291455,0.264583 -0.2445017,0.244505 -0.2107512,0.428639 -0.2041218,0.456304 l -0.00465,0.0047 c 0,0 0.00465,2.65e-4 0.00517,5.29e-4 1.736e-4,5.3e-4 0.00103,0.0057 0.00103,0.0057 l 0.00465,-0.0047 c 0.027721,0.0066 0.2118445,0.04033 0.4563028,-0.204123 0.1322919,-0.264584 0.1322919,-0.264584 0.2645833,-0.291455 0.1322919,0.02687 0.1322917,0.02687 0.2645833,0.291455 0.1984378,0.198435 0.3621234,0.213294 0.4314984,0.208256 0.02312,-0.0016 0.03566,-0.0057 0.03566,-0.0057 0,0 0.06201,-0.20257 -0.202572,-0.467156 -0.2645836,-0.132289 -0.2645839,-0.132291 -0.291455,-0.264583 0.026871,-0.132279 0.026873,-0.132292 0.291455,-0.264583 0.244502,-0.244505 0.210752,-0.428639 0.204122,-0.456304 l 0.0047,-0.0047 c 0,0 -0.0046,-7.94e-4 -0.0052,-0.0011 -1.47e-4,-5.29e-4 -10e-4,-0.0052 -10e-4,-0.0052 z"/></mask><linearGradient id="Main-6"><stop style="stop-color:#4d4d4d;stop-opacity:1" id="stop2082-3" offset="0"/></linearGradient><linearGradient id="Green" gradientTransform="scale(3.7795276)"><stop style="stop-color:#66ff7a;stop-opacity:1" id="stop2506" offset="0"/></linearGradient><mask id="mask-powermask-path-effect1741" maskUnits="userSpaceOnUse"><path id="path1739" style="font-variation-settings:normal;opacity:1;vector-effect:none;fill:#000;fill-opacity:.992157;stroke:none;stroke-width:.264583;stroke-linecap:butt;stroke-linejoin:miter;stroke-miterlimit:4;stroke-dasharray:none;stroke-dashoffset:0;stroke-opacity:1;marker:none;paint-order:fill markers stroke;stop-color:#000;stop-opacity:1" d="m 20.095414,60.589583 a 0.52916663,0.52916663 0 0 0 -0.516248,0.529166 0.52916663,0.52916663 0 0 0 0.529167,0.529167 0.52916663,0.52916663 0 0 0 0.529167,-0.529167 0.52916663,0.52916663 0 0 0 -0.529167,-0.529166 0.52916663,0.52916663 0 0 0 -0.01292,0 z m -1.058333,2.116666 A 0.52916663,0.52916663 0 0 0 18.520833,63.235416 0.52916663,0.52916663 0 0 0 19.05,63.764583 0.52916663,0.52916663 0 0 0 19.579166,63.235416 0.52916663,0.52916663 0 0 0 19.05,62.706249 a 0.52916663,0.52916663 0 0 0 -0.01292,0 z m 2.116666,0 a 0.52916663,0.52916663 0 0 0 -0.516247,0.529167 0.52916663,0.52916663 0 0 0 0.529166,0.529167 0.52916663,0.52916663 0 0 0 0.529167,-0.529167 0.52916663,0.52916663 0 0 0 -0.529167,-0.529167 0.52916663,0.52916663 0 0 0 -0.01292,0 z"/></mask><mask id="mask-powermask-path-effect1389" maskUnits="userSpaceOnUse"><path id="path1387" style="font-variation-settings:normal;opacity:1;vector-effect:none;fill:#000;fill-opacity:.992157;stroke:none;stroke-width:.264583;stroke-linecap:butt;stroke-linejoin:miter;stroke-miterlimit:4;stroke-dasharray:none;stroke-dashoffset:0;stroke-opacity:1;stop-color:#000;stop-opacity:1" transform="matrix(3.7795275,0,0,3.7795275,-6.9999997,-6.9999997)"/></mask><linearGradient id="Blue" gradientTransform="matrix(0.26458333,0,0,0.26458333,-13.80713,103.48169)"><stop style="stop-color:#55c3ff;stop-opacity:1" id="stop2484" offset="0"/></linearGradient><linearGradient id="linearGradient2498" x1="23.813" x2="26.987" y1="4.233" y2="4.233" gradientUnits="userSpaceOnUse" xlink:href="#Blue"/></defs><g id="list-added" style="display:inline" transform="matrix(3.7795278,0,0,3.7795278,-88.000018,-8.0000005)"><rect style="opacity:0;fill:#a51d2d;stroke-width:.264583px;paint-order:fill markers stroke;stop-color:#000" id="rect1354" width="4.233" height="4.233" x="23.283" y="2.117" rx="0"/><path id="rect1113" style="font-variation-settings:normal;opacity:1;vector-effect:none;fill:url(#linearGradient2498);fill-opacity:1;stroke:none;stroke-width:.529167;stroke-linecap:butt;stroke-linejoin:miter;stroke-miterlimit:4;stroke-dasharray:none;stroke-dashoffset:0;stroke-opacity:1;stop-color:#000;stop-opacity:1" d="m 25.135416,2.6458331 v 1.322917 H 23.8125 v 0.529167 h 1.322916 v 1.3229163 h 0.529167 V 4.4979171 H 26.9875 v -0.529167 h -1.322917 v -1.322917 z"/></g></svg>